<svg width="53" height="53" viewBox="0 0 53 53" fill="none" xmlns="http://www.w3.org/2000/svg">
<path d="M46.927 36.1279C44.9837 36.1279 44.1224 35.377 42.9078 34.317C41.5607 33.1687 39.8824 31.7112 36.7245 31.7112C33.5445 31.7112 31.8882 33.1687 30.5411 34.317C29.3265 35.377 28.4432 36.1279 26.4999 36.1279C24.5787 36.1279 23.6953 35.377 22.4807 34.317C21.1336 33.1687 19.4553 31.7112 16.2974 31.7112C13.1174 31.7112 11.4391 33.1687 10.092 34.317C8.87742 35.377 8.01616 36.1279 6.07282 36.1279C5.16741 36.1279 4.41657 36.8787 4.41657 37.7841C4.41657 38.7116 5.16741 39.4404 6.07282 39.4404C9.25282 39.4404 10.909 38.0049 12.2561 36.8345C13.4707 35.7745 14.3541 35.0237 16.2974 35.0237C18.2407 35.0237 19.102 35.7745 20.3166 36.8345C21.6637 38.0049 23.342 39.4404 26.4999 39.4404C29.6799 39.4404 31.3582 38.0049 32.7053 36.8345C33.9199 35.7745 34.7812 35.0237 36.7245 35.0237C38.6457 35.0237 39.5291 35.7745 40.7437 36.8345C42.0908 38.0049 43.7691 39.4404 46.927 39.4404C47.8324 39.4404 48.5832 38.7116 48.5832 37.7841C48.5832 36.8787 47.8324 36.1279 46.927 36.1279Z" fill="#141416"/>
<path d="M46.927 27.0307C44.9837 27.0307 44.1224 26.2578 42.9078 25.2198C41.5607 24.0494 39.8824 22.614 36.7245 22.614C33.5445 22.614 31.8882 24.0494 30.5411 25.2198C29.3265 26.2578 28.4432 27.0307 26.4999 27.0307C24.5787 27.0307 23.6953 26.2578 22.4807 25.2198C21.1336 24.0494 19.4553 22.614 16.2974 22.614C13.1174 22.614 11.4391 24.0494 10.092 25.2198C8.87742 26.2578 8.01616 27.0307 6.07282 27.0307C5.16741 27.0307 4.41657 27.7594 4.41657 28.6869C4.41657 29.5923 5.16741 30.3432 6.07282 30.3432C9.25282 30.3432 10.909 28.8857 12.2561 27.7153C13.4707 26.6773 14.3541 25.9265 16.2974 25.9265C18.2407 25.9265 19.102 26.6773 20.3166 27.7153C21.6637 28.8857 23.342 30.3432 26.4999 30.3432C29.6799 30.3432 31.3582 28.8857 32.7053 27.7153C33.9199 26.6773 34.7812 25.9265 36.7245 25.9265C38.6457 25.9265 39.5291 26.6773 40.7437 27.7153C42.0908 28.8857 43.7691 30.3432 46.927 30.3432C47.8324 30.3432 48.5832 29.5923 48.5832 28.6869C48.5832 27.7594 47.8324 27.0307 46.927 27.0307Z" fill="#141416"/>
<path d="M6.07282 21.2885C9.25282 21.2885 10.909 19.831 12.2561 18.6827C13.4707 17.6227 14.3541 16.8718 16.2974 16.8718C18.2407 16.8718 19.102 17.6227 20.3166 18.6827C21.6637 19.831 23.342 21.2885 26.4999 21.2885C29.6799 21.2885 31.3582 19.831 32.7053 18.6827C33.9199 17.6227 34.7812 16.8718 36.7245 16.8718C38.6457 16.8718 39.5291 17.6227 40.7437 18.6827C42.0908 19.831 43.7691 21.2885 46.927 21.2885C47.8324 21.2885 48.5832 20.5377 48.5832 19.6322C48.5832 18.7047 47.8324 17.976 46.927 17.976C44.9837 17.976 44.1224 17.2252 42.9078 16.1652C41.5607 14.9947 39.8824 13.5593 36.7245 13.5593C33.5445 13.5593 31.8882 14.9947 30.5411 16.1652C29.3265 17.2252 28.4432 17.976 26.4999 17.976C24.5787 17.976 23.6953 17.2252 22.4807 16.1652C21.1336 14.9947 19.4553 13.5593 16.2974 13.5593C13.1174 13.5593 11.4391 14.9947 10.092 16.1652C8.87742 17.2252 8.01616 17.976 6.07282 17.976C5.16741 17.976 4.41657 18.7047 4.41657 19.6322C4.41657 20.5377 5.16741 21.2885 6.07282 21.2885Z" fill="#141416"/>
</svg>
